<svg xmlns="http://www.w3.org/2000/svg" width="40" height="40" viewBox="0 0 104 104"><defs><style>.a{fill:none;}.b{fill:#fff;}.b,.c{fill-rule:evenodd;}.c{fill:#ff3880;}</style></defs><g transform="translate(-166 -369)"><rect class="a" width="104" height="104" transform="translate(166 369)"/><g transform="translate(185.711 440.008)"><path class="b" d="M19.21-11.331,3.1-27.441a10.6,10.6,0,0,1,0-14.981,10.6,10.6,0,0,1,14.981,0l23.6,23.6a10.593,10.593,0,0,1,0,14.981L25.242,12.6A10.593,10.593,0,0,1,10.261-2.383Z" transform="translate(0 4.724)"/><path class="c" d="M40.347-32.189,56.456-16.08a10.6,10.6,0,0,1,0,14.981,10.6,10.6,0,0,1-14.981,0l-23.6-23.6a10.593,10.593,0,0,1,0-14.981L34.314-56.119a10.6,10.6,0,0,1,14.981,0,10.6,10.6,0,0,1,0,14.981Z" transform="translate(5.095)"/></g></g></svg>