<svg width="63" height="14" viewBox="0 0 303 67" fill="none" xmlns="http://www.w3.org/2000/svg">
<path d="M16.2395 11.6524H4.63755C4.102 11.7292 3.55593 11.6801 3.04263 11.5092C2.52933 11.3382 2.0629 11.05 1.68034 10.6675C1.29778 10.2849 1.00959 9.81849 0.838629 9.30518C0.667668 8.79188 0.61863 8.24581 0.695406 7.71026V4.84507C0.61863 4.30952 0.667668 3.76345 0.838629 3.25015C1.00959 2.73684 1.29778 2.27042 1.68034 1.88786C2.0629 1.5053 2.52933 1.21711 3.04263 1.04615C3.55593 0.875188 4.102 0.826149 4.63755 0.902926H40.3868C40.9223 0.826149 41.4684 0.875188 41.9817 1.04615C42.495 1.21711 42.9614 1.5053 43.344 1.88786C43.7265 2.27042 44.0147 2.73684 44.1857 3.25015C44.3567 3.76345 44.4057 4.30952 44.3289 4.84507V7.71026C44.4057 8.24581 44.3567 8.79188 44.1857 9.30518C44.0147 9.81849 43.7265 10.2849 43.344 10.6675C42.9614 11.05 42.495 11.3382 41.9817 11.5092C41.4684 11.6801 40.9223 11.7292 40.3868 11.6524H28.7848V48.1986C28.8616 48.7342 28.8125 49.2802 28.6416 49.7935C28.4706 50.3068 28.1824 50.7733 27.7999 51.1558C27.4173 51.5384 26.9509 51.8266 26.4376 51.9975C25.9243 52.1685 25.3782 52.2175 24.8427 52.1408H20.1791C19.6436 52.2175 19.0975 52.1685 18.5842 51.9975C18.0709 51.8266 17.6045 51.5384 17.2219 51.1558C16.8394 50.7733 16.5512 50.3068 16.3802 49.7935C16.2093 49.2802 16.1602 48.7342 16.237 48.1986L16.2395 11.6524Z" fill="white"/>
<path d="M40.0287 33.795C39.9928 31.0538 40.5566 28.3379 41.6807 25.8376C42.736 23.5088 44.261 21.423 46.1601 19.7112C48.0943 17.988 50.3409 16.6516 52.7783 15.7741C55.3727 14.8317 58.1142 14.3585 60.8744 14.3769C63.6702 14.3565 66.4476 14.8295 69.079 15.7741C71.5337 16.6461 73.7965 17.9847 75.7426 19.7163C77.643 21.4261 79.1697 23.5101 80.227 25.8376C81.3499 28.3374 81.9129 31.0524 81.8765 33.7925C81.9104 36.4975 81.3472 39.1766 80.227 41.639C79.1651 43.9536 77.6407 46.0265 75.7476 47.73C73.8162 49.4541 71.565 50.7823 69.1219 51.6394C66.4982 52.5628 63.734 53.0236 60.9526 53.0013C58.1712 53.0236 55.407 52.5628 52.7833 51.6394C50.3397 50.7841 48.0877 49.4576 46.1551 47.735C44.2636 46.0303 42.7409 43.9566 41.6807 41.6415C40.5597 39.1793 39.9956 36.5002 40.0287 33.795V33.795ZM52.5689 33.795C52.5486 35.0695 52.78 36.3354 53.2499 37.5203C53.668 38.5639 54.2896 39.5139 55.0785 40.3148C55.8332 41.077 56.7351 41.6777 57.7293 42.0803C58.754 42.4909 59.8487 42.6982 60.9526 42.6907C62.0573 42.6985 63.153 42.4912 64.1785 42.0803C65.1727 41.6778 66.0746 41.0771 66.8293 40.3148C67.6173 39.5137 68.238 38.5637 68.6553 37.5203C69.1252 36.3354 69.3566 35.0695 69.3363 33.795C69.3546 32.5085 69.1233 31.2305 68.6553 30.0319C68.2385 28.9673 67.6183 27.9941 66.8293 27.1668C66.0773 26.3843 65.1759 25.7608 64.1785 25.3332C63.1586 24.8996 62.0607 24.6798 60.9526 24.6875C59.8453 24.6802 58.7483 24.8999 57.7293 25.3332C56.7326 25.7587 55.8313 26.3796 55.0785 27.1592C54.2886 27.9864 53.6675 28.9596 53.2499 30.0244C52.7809 31.2253 52.5497 32.5059 52.5689 33.795V33.795Z" fill="white"/>
<path d="M87.1782 4.84548C87.1021 4.3106 87.1514 3.76534 87.3223 3.25281C87.4932 2.74027 87.7809 2.27452 88.1628 1.89237C88.5447 1.51021 89.0103 1.22214 89.5227 1.05093C90.0352 0.87971 90.5804 0.830042 91.1153 0.905856H95.63C96.1655 0.829079 96.7116 0.878117 97.2249 1.04908C97.7382 1.22004 98.2046 1.50823 98.5872 1.89079C98.9698 2.27335 99.258 2.73977 99.4289 3.25308C99.5999 3.76638 99.6489 4.31245 99.5721 4.848V27.4189H103.083L108.816 17.8876C109.259 17.0487 109.933 16.3537 110.758 15.8842C111.582 15.4147 112.524 15.1901 113.472 15.2368H118.201C119.825 15.2368 120.876 15.6908 121.354 16.5988C121.575 17.1588 121.638 17.7687 121.537 18.3623C121.436 18.9558 121.175 19.5104 120.781 19.9659L113.058 32.0042V32.1479L122.446 47.4121C122.822 47.8852 123.066 48.4491 123.155 49.0469C123.243 49.6446 123.173 50.2552 122.95 50.817C122.473 51.7014 121.422 52.1437 119.797 52.1437H114.425C113.463 52.1709 112.513 51.9222 111.688 51.427C110.862 50.9319 110.196 50.2108 109.767 49.3491L103.461 37.8127H99.5747V48.204C99.6514 48.7396 99.6024 49.2857 99.4314 49.799C99.2605 50.3123 98.9723 50.7787 98.5897 51.1613C98.2072 51.5438 97.7408 51.832 97.2275 52.003C96.7142 52.1739 96.1681 52.223 95.6325 52.1462H91.1153C90.5798 52.223 90.0337 52.1739 89.5204 52.003C89.0071 51.832 88.5407 51.5438 88.1581 51.1613C87.7756 50.7787 87.4874 50.3123 87.3164 49.799C87.1455 49.2857 87.0964 48.7396 87.1732 48.204L87.1782 4.84548Z" fill="white"/>
<path d="M127.952 47.9116C127.576 47.6323 127.237 47.3069 126.943 46.9431C126.657 46.5844 126.45 46.1693 126.335 45.7249C126.216 45.2428 126.216 44.7391 126.335 44.257C126.515 43.6078 126.819 42.9996 127.23 42.4663L129.452 39.243C129.698 38.7977 130.036 38.41 130.444 38.1056C130.851 37.8012 131.319 37.587 131.816 37.4774C132.905 37.4138 133.986 37.7031 134.898 38.3022L136.439 39.1622C137.036 39.4985 137.728 39.8449 138.517 40.2014C139.36 40.5786 140.235 40.8783 141.133 41.0967C142.141 41.3419 143.176 41.4621 144.215 41.4549C145.664 41.5678 147.111 41.2029 148.333 40.4158C148.742 40.1284 149.075 39.7474 149.306 39.3046C149.537 38.8619 149.658 38.3702 149.66 37.8709C149.65 37.2643 149.491 36.6694 149.197 36.1385C148.904 35.6077 148.484 35.1572 147.975 34.8266C146.669 33.8858 145.264 33.0924 143.783 32.4608C142.11 31.721 140.295 30.9324 138.338 30.0951C136.406 29.2745 134.578 28.2281 132.893 26.9777C131.223 25.7404 129.801 24.2004 128.701 22.4377C127.515 20.4099 126.93 18.0865 127.016 15.7389C126.989 13.5226 127.467 11.3292 128.413 9.32501C129.326 7.41325 130.633 5.7158 132.247 4.34372C133.954 2.91267 135.925 1.82963 138.048 1.1557C140.386 0.40109 142.83 0.0264157 145.287 0.0459512C148.083 0.0155703 150.867 0.441522 153.526 1.30703C155.495 1.90266 157.374 2.75851 159.116 3.8519C159.562 4.12526 159.951 4.48443 160.258 4.90866C160.566 5.3329 160.786 5.8138 160.906 6.32362C161.028 7.32751 160.827 8.34407 160.334 9.22664L158.614 12.5937C157.897 13.9792 157.073 14.6838 156.142 14.7073C155.125 14.7086 154.126 14.448 153.239 13.9507C152.047 13.3773 150.817 12.8401 149.549 12.339C148.141 11.811 146.646 11.5542 145.143 11.5823C143.634 11.4491 142.124 11.8141 140.842 12.6215C140.443 12.9146 140.118 13.2978 139.894 13.7399C139.67 14.1821 139.554 14.6707 139.554 15.1663C139.554 15.7797 139.708 16.3832 140.002 16.9217C140.296 17.4601 140.72 17.9162 141.236 18.2484C142.546 19.1626 143.951 19.9313 145.428 20.5411C147.101 21.2574 148.917 22.0098 150.876 22.7984C152.808 23.5725 154.637 24.5832 156.321 25.8074C157.996 27.0284 159.419 28.5614 160.513 30.322C161.698 32.3503 162.282 34.6734 162.198 37.0209C162.206 39.1206 161.805 41.2018 161.015 43.1473C160.233 45.0717 159.048 46.8063 157.539 48.2345C155.902 49.759 153.977 50.9407 151.877 51.71C149.423 52.6059 146.824 53.0428 144.212 52.9989C142.468 53.0048 140.727 52.8358 139.016 52.4944C137.459 52.1829 135.926 51.7614 134.429 51.2333C133.129 50.7769 131.865 50.2265 130.645 49.5864C129.701 49.1064 128.8 48.5461 127.952 47.9116V47.9116Z" fill="white"/>
<path d="M164.641 19.6781C164.433 19.1461 164.356 18.5714 164.419 18.0034C164.481 17.4354 164.681 16.891 165 16.4169C165.374 15.9988 165.841 15.674 166.364 15.4686C166.886 15.2632 167.45 15.1829 168.009 15.234H172.881C173.913 15.144 174.939 15.4608 175.74 16.1168C176.541 16.7727 177.054 17.7159 177.169 18.7449L181.038 37.018C181.134 37.5426 181.205 38.0319 181.252 38.4859C181.3 38.9399 181.347 39.3602 181.396 39.747C181.441 40.1279 181.464 40.511 181.467 40.8946H181.611C181.658 40.5583 181.706 40.1757 181.754 39.747C181.802 39.3636 181.86 38.9474 181.933 38.4859C182.014 37.9909 182.121 37.5009 182.256 37.018L186.544 18.6743C186.674 17.6511 187.199 16.7193 188.006 16.0782C188.814 15.4371 189.841 15.1378 190.867 15.2441H194.451C195.47 15.1617 196.482 15.4721 197.279 16.1118C198.076 16.7514 198.598 17.6719 198.739 18.6844L203.039 37.0281C203.135 37.5527 203.231 38.042 203.327 38.496C203.42 38.95 203.493 39.3686 203.541 39.7571C203.585 40.138 203.609 40.5211 203.612 40.9046H203.755C203.758 40.5211 203.781 40.138 203.826 39.7571C203.874 39.3737 203.934 38.9575 204.005 38.496C204.076 38.0344 204.161 37.5527 204.257 37.0281L208.126 18.755C208.241 17.7224 208.756 16.776 209.561 16.1194C210.366 15.4629 211.397 15.1486 212.432 15.2441H217.161C217.72 15.193 218.283 15.2733 218.805 15.4787C219.328 15.6841 219.795 16.0088 220.17 16.427C220.489 16.901 220.688 17.4455 220.75 18.0135C220.813 18.5815 220.736 19.1562 220.528 19.6882L212.358 48.7814C212.169 49.7806 211.619 50.6754 210.813 51.2961C210.008 51.9167 209.002 52.22 207.987 52.1485H201.11C200.082 52.2286 199.062 51.9193 198.252 51.2819C197.442 50.6445 196.902 49.7257 196.739 48.7082L193.442 35.0885C193.307 34.6056 193.199 34.1156 193.119 33.6206C193.049 33.1666 192.963 32.748 192.867 32.3595C192.775 31.9599 192.727 31.5514 192.723 31.1413H192.58C192.576 31.5514 192.528 31.9599 192.436 32.3595C192.34 32.7412 192.244 33.1616 192.148 33.6206C192.052 34.0797 191.957 34.569 191.863 35.0885L188.567 48.7082C188.403 49.7257 187.863 50.6445 187.053 51.2819C186.243 51.9193 185.223 52.2286 184.196 52.1485H177.174C176.159 52.2201 175.153 51.9169 174.347 51.2963C173.541 50.6757 172.991 49.7808 172.801 48.7814L164.641 19.6781Z" fill="white"/>
<path d="M222.397 41.7496C222.311 39.5283 223.008 37.3474 224.367 35.588C225.728 33.9271 227.454 32.603 229.411 31.719C231.551 30.734 233.819 30.0548 236.148 29.7012C238.493 29.3266 240.865 29.1351 243.24 29.1287H244.317V28.483C244.379 27.8573 244.265 27.2266 243.986 26.6629C243.707 26.0992 243.276 25.6252 242.741 25.295C241.622 24.6813 240.362 24.3725 239.086 24.3996C237.897 24.3997 236.714 24.5695 235.573 24.9041C234.496 25.2135 233.443 25.5969 232.42 26.0516C231.971 26.3371 231.464 26.5198 230.936 26.5868C230.409 26.6537 229.873 26.6032 229.367 26.4388C228.86 26.2745 228.397 26.0004 228.009 25.6361C227.621 25.2718 227.319 24.8263 227.123 24.3315L226.263 22.5408C225.76 21.6093 225.608 20.5282 225.834 19.494C225.985 18.9947 226.242 18.5341 226.588 18.1442C226.934 17.7544 227.361 17.4447 227.84 17.2367C229.529 16.4542 231.278 15.8073 233.071 15.3022C235.402 14.6506 237.815 14.3372 240.236 14.3715C244.619 14.1224 248.933 15.5437 252.31 18.3489C253.805 19.7626 254.974 21.4854 255.736 23.3972C256.497 25.3091 256.833 27.364 256.718 29.4187V48.1937C256.795 48.7293 256.746 49.2754 256.575 49.7887C256.404 50.302 256.116 50.7684 255.733 51.151C255.351 51.5335 254.884 51.8217 254.371 51.9927C253.858 52.1636 253.312 52.2127 252.776 52.1359H249.336C248.795 52.2078 248.245 52.1529 247.729 51.9755C247.213 51.7981 246.746 51.5031 246.364 51.1138C245.981 50.7245 245.695 50.2517 245.527 49.7326C245.359 49.2135 245.315 48.6625 245.396 48.1231V47.3362C245.393 47.2976 245.398 47.2587 245.41 47.2219C245.422 47.1851 245.442 47.1511 245.467 47.1218H245.323C244.597 48.2287 243.704 49.2165 242.675 50.0501C241.634 50.895 240.475 51.5832 239.235 52.093C237.715 52.7155 236.084 53.0202 234.443 52.9884C232.779 53.007 231.127 52.7154 229.57 52.1283C228.16 51.5988 226.869 50.7946 225.771 49.7625C224.713 48.7488 223.872 47.5302 223.3 46.1811C222.698 44.7815 222.39 43.2731 222.397 41.7496V41.7496ZM234.649 40.602C234.643 41.0133 234.719 41.4217 234.873 41.8033C235.027 42.1848 235.255 42.5319 235.545 42.8241C235.894 43.149 236.306 43.3984 236.755 43.5568C237.205 43.7152 237.682 43.7792 238.158 43.7446C239.032 43.7526 239.894 43.5429 240.667 43.1343C241.418 42.7382 242.096 42.2171 242.672 41.5932C243.237 40.9864 243.686 40.2823 243.999 39.515C244.301 38.7882 244.459 38.0094 244.463 37.2223V36.2135H243.318C242.323 36.2161 241.33 36.2877 240.345 36.4278C239.387 36.5528 238.449 36.7933 237.55 37.1441C236.774 37.4399 236.067 37.8914 235.472 38.4708C235.196 38.7505 234.98 39.0841 234.839 39.4508C234.697 39.8174 234.633 40.2094 234.649 40.602V40.602Z" fill="white"/>
<path d="M263.528 19.1762C263.451 18.6409 263.5 18.0951 263.671 17.582C263.842 17.0689 264.13 16.6026 264.512 16.2201C264.894 15.8376 265.36 15.5494 265.873 15.3782C266.386 15.2071 266.932 15.1577 267.467 15.234H270.693C271.75 15.1594 272.796 15.4783 273.632 16.1294C273.961 16.4191 274.222 16.7781 274.397 17.1805C274.571 17.583 274.654 18.019 274.641 18.4574V19.2468C274.643 19.3323 274.631 19.4176 274.605 19.499C274.581 19.5808 274.569 19.6659 274.57 19.7512V19.9656H274.714C275.469 18.9204 276.361 17.9807 277.364 17.1711C278.436 16.4104 279.59 15.7733 280.805 15.2719C282.422 14.6318 284.153 14.3271 285.892 14.3765C288.236 14.3467 290.559 14.8233 292.702 15.7738C294.733 16.6887 296.532 18.048 297.968 19.7512C299.474 21.5578 300.617 23.6379 301.335 25.8776C302.15 28.4121 302.55 31.0619 302.518 33.7241C302.549 36.4192 302.107 39.0989 301.212 41.6411C300.42 43.8912 299.19 45.9616 297.592 47.7322C296.071 49.4085 294.209 50.7405 292.132 51.639C289.98 52.557 287.661 53.0207 285.322 53.001C283.873 53.0361 282.43 52.8176 281.057 52.3553C280.035 51.9993 279.06 51.5181 278.156 50.9227C277.314 50.3195 276.565 49.5955 275.934 48.7738H275.791C275.794 49.0618 275.818 49.3492 275.861 49.6339C275.861 49.9214 275.874 50.2577 275.899 50.6428C275.922 51.0261 275.934 51.4549 275.934 51.9316V62.5247C276.011 63.0602 275.962 63.6063 275.791 64.1196C275.62 64.6329 275.332 65.0993 274.949 65.4819C274.567 65.8645 274.1 66.1526 273.587 66.3236C273.074 66.4946 272.528 66.5436 271.992 66.4668H267.478C266.942 66.5432 266.396 66.4938 265.883 66.3227C265.371 66.1515 264.904 65.8633 264.522 65.4807C264.14 65.0982 263.852 64.632 263.681 64.1189C263.51 63.6058 263.461 63.06 263.538 62.5247L263.528 19.1762ZM275.566 33.9384C275.566 35.0351 275.709 36.127 275.99 37.187C276.253 38.2108 276.716 39.1725 277.352 40.0169C277.963 40.8197 278.731 41.4899 279.609 41.9867C280.588 42.513 281.687 42.7738 282.797 42.7433C283.757 42.7461 284.707 42.5452 285.584 42.1539C286.461 41.7626 287.245 41.1898 287.884 40.4734C289.431 38.6525 290.203 36.2987 290.036 33.9157C290.157 31.5385 289.444 29.1937 288.018 27.2875C287.401 26.4987 286.607 25.8654 285.701 25.4384C284.795 25.0114 283.801 24.8025 282.8 24.8284C281.866 24.8242 280.941 25.0069 280.078 25.3656C279.2 25.7369 278.416 26.2996 277.783 27.0126C277.064 27.8402 276.517 28.802 276.171 29.8424C275.739 31.1636 275.534 32.5487 275.566 33.9384Z" fill="white"/>
</svg>